<?xml version="1.0" standalone="no"?>
<!DOCTYPE svg PUBLIC "-//W3C//DTD SVG 20010904//EN"
 "http://www.w3.org/TR/2001/REC-SVG-20010904/DTD/svg10.dtd">
<svg version="1.0" xmlns="http://www.w3.org/2000/svg"
 width="360.000000pt" height="359.000000pt" viewBox="0 0 360.000000 359.000000"
 preserveAspectRatio="xMidYMid meet">

<g transform="translate(0.000000,359.000000) scale(0.100000,-0.100000)"
fill="#EFCFE3" stroke="none">
<path d="M1207 3584 c-11 -11 -8 -86 4 -146 25 -117 127 -263 250 -358 75 -57
279 -109 314 -80 26 22 17 48 -27 77 -79 50 -88 62 -88 114 0 39 6 54 34 88
54 65 56 122 8 232 -31 71 -48 79 -177 79 -73 0 -115 -4 -123 -12 -28 -28 -11
-128 38 -219 39 -71 19 -109 -40 -79 -61 31 -65 41 -70 179 l-5 126 -55 3
c-31 2 -59 0 -63 -4z"/>
<path d="M1936 3557 c-85 -111 -85 -238 -1 -293 60 -39 173 10 232 101 53 81
57 86 78 88 17 2 20 -5 23 -47 5 -76 -3 -91 -61 -123 -158 -88 -345 -198 -364
-216 -27 -24 -30 -62 -7 -71 26 -10 73 -7 137 10 231 60 426 301 427 527 l0
57 -219 0 -220 0 -25 -33z"/>
<path d="M2 2370 c3 -32 11 -38 163 -127 88 -51 194 -110 235 -131 l76 -37 -4
-85 c-5 -91 -15 -114 -62 -132 -17 -6 -39 -5 -68 3 -87 24 -186 -40 -242 -156
-48 -101 -35 -185 35 -231 60 -39 173 10 232 101 53 81 57 86 78 88 17 2 20
-5 23 -47 5 -76 -3 -91 -61 -123 -158 -88 -345 -198 -364 -216 -42 -38 -23
-77 35 -77 126 0 293 91 392 213 95 117 130 219 130 379 0 153 -31 275 -75
291 -8 4 -15 13 -15 22 0 29 -28 70 -87 128 -111 108 -208 155 -339 164 l-85
6 3 -33z"/>
<path d="M3445 2386 c-99 -25 -198 -83 -274 -161 -52 -53 -71 -80 -71 -100 0
-17 -10 -35 -29 -51 -44 -37 -63 -102 -68 -237 -7 -146 7 -218 58 -317 37 -71
124 -171 200 -230 75 -57 279 -109 314 -80 26 22 17 48 -27 77 -79 50 -88 62
-88 114 0 39 6 54 34 88 22 26 36 55 40 83 16 106 -77 254 -180 288 -89 30
-164 -32 -164 -133 0 -45 15 -93 50 -158 39 -72 19 -109 -41 -79 -69 36 -69
35 -69 321 l0 257 67 38 c37 20 80 37 97 37 34 0 76 -42 76 -76 0 -32 26 -65
78 -98 36 -23 58 -29 99 -29 l54 0 -3 143 -3 142 -42 3 c-54 4 -73 25 -48 52
10 11 22 20 28 20 5 0 22 9 38 21 21 14 29 29 29 50 0 28 -1 29 -52 28 -29 0
-75 -6 -103 -13z"/>
<path d="M7 2223 c-4 -3 -7 -69 -7 -145 l0 -138 38 0 c77 0 172 76 172 137 0
53 -58 121 -119 142 -38 12 -74 14 -84 4z"/>
<path d="M1645 586 c-99 -25 -198 -83 -274 -161 -52 -53 -71 -80 -71 -100 0
-17 -10 -35 -29 -51 -39 -32 -64 -111 -65 -199 l-1 -70 60 0 60 0 3 132 3 132
66 37 c37 21 80 37 97 37 34 0 76 -42 76 -76 0 -32 26 -65 78 -98 42 -27 54
-29 137 -29 106 0 164 23 203 80 36 54 25 106 -35 161 -39 36 -83 49 -168 49
-52 0 -76 4 -85 15 -17 20 -2 38 57 67 l45 22 61 -32 c34 -17 123 -68 197
-112 74 -44 153 -88 176 -97 l40 -17 -4 -85 c-6 -127 -33 -148 -157 -126 -32
5 -49 2 -84 -17 -83 -44 -71 -48 158 -48 l211 0 0 50 c0 95 -39 220 -73 233
-8 3 -17 18 -20 34 -19 93 -221 247 -360 274 -69 13 -241 10 -302 -5z"/>
<path d="M1470 63 c-24 -9 -50 -35 -50 -50 0 -10 23 -13 101 -13 107 0 117 6
68 43 -27 19 -93 31 -119 20z"/>
</g>
</svg>
